<svg width="113" height="61" viewBox="0 0 113 61" fill="none" xmlns="http://www.w3.org/2000/svg">
<path d="M30.5 11L31.5 2.5H15.5C11.1667 2.66667 2.6 5.2 3 14C3.5 25 10.5 24.5 15.5 28C19.5 30.8 17.1667 33.1667 15.5 34H1L0 43H15C19 43 23 40.6667 24.5 39.5C26 38.6667 29.1 35.6 29.5 30C30 23 22.5 20 17 16.5C12.6 13.7 15.1667 11.6667 17 11H30.5Z" fill="white"/>
<path d="M35 33L39 0H49L45.5 31C44.7 34.2 46.1667 35 47 35H55.5L55 43H46C37.2 43.4 35 36.5 35 33Z" fill="white"/>
<path d="M48.5 21.5L49.5 13.5H58.5L57.5 21.5H48.5Z" fill="white"/>
<path d="M75 13.5H65L62 43H72L75 13.5Z" fill="white"/>
<path d="M93.5 13.5H83.5L78.5 55.5H88.5L93.5 13.5Z" fill="white"/>
<path d="M94.5 21L95.5 14.5C99.5 12.3333 108.5 10.5 112.5 20.5C114.1 28.9 111.167 35 109.5 37C102.3 45 94.6667 43.3333 92 41.5L93 35C97.8 37 101.167 32.1667 102 29.5C103.6 20.3 97.5 20 94.5 21Z" fill="white"/>
<path d="M75 5.99999C75 8.48526 72.4228 11 69.9375 11C67.4522 11 66 9.48526 66 6.99999C66 4.51471 68.5772 2 71.0625 2C73.5478 2 75 3.51471 75 5.99999Z" fill="white"/>
<path d="M1.824 53.408L2.016 52.352H3.936C4.432 52.352 4.868 52.228 5.244 51.98C5.62 51.724 5.912 51.396 6.12 50.996C6.328 50.588 6.432 50.16 6.432 49.712C6.432 49.232 6.3 48.888 6.036 48.68C5.772 48.472 5.424 48.368 4.992 48.368H2.784L2.976 47.36H4.992C5.88 47.36 6.54 47.56 6.972 47.96C7.412 48.36 7.632 48.944 7.632 49.712C7.632 50.128 7.564 50.52 7.428 50.888C7.3 51.256 7.12 51.596 6.888 51.908C6.656 52.212 6.392 52.476 6.096 52.7C5.8 52.924 5.488 53.1 5.16 53.228C4.832 53.348 4.504 53.408 4.176 53.408H1.824ZM0.528 56L2.208 47.36H3.36L1.68 56H0.528ZM5.64 56L3.936 53.072L4.992 52.64L6.96 55.904V56H5.64ZM14.0178 56.096C13.3458 56.096 12.7818 55.988 12.3258 55.772C11.8698 55.556 11.5258 55.244 11.2938 54.836C11.0618 54.428 10.9458 53.936 10.9458 53.36C10.9458 52.84 11.0258 52.34 11.1858 51.86C11.3538 51.38 11.5898 50.952 11.8938 50.576C12.2058 50.192 12.5858 49.888 13.0338 49.664C13.4818 49.44 13.9858 49.328 14.5458 49.328C15.3858 49.328 16.0178 49.544 16.4418 49.976C16.8738 50.408 17.0898 50.96 17.0898 51.632C17.0898 51.896 17.0658 52.156 17.0178 52.412C16.9698 52.668 16.9138 52.904 16.8498 53.12H11.7138V52.208H15.8898C15.9138 52.112 15.9298 52.016 15.9378 51.92C15.9538 51.816 15.9618 51.736 15.9618 51.68C15.9618 51.248 15.8498 50.908 15.6258 50.66C15.4018 50.412 15.0258 50.288 14.4978 50.288C14.1138 50.288 13.7698 50.372 13.4658 50.54C13.1698 50.708 12.9178 50.928 12.7098 51.2C12.5018 51.472 12.3418 51.776 12.2298 52.112C12.1258 52.448 12.0738 52.784 12.0738 53.12V53.36C12.0738 53.96 12.2578 54.408 12.6258 54.704C12.9938 54.992 13.4898 55.136 14.1138 55.136C14.5218 55.136 14.8898 55.096 15.2178 55.016C15.5458 54.936 15.8018 54.848 15.9858 54.752H16.0818L15.8898 55.76C15.6978 55.856 15.4338 55.936 15.0978 56C14.7618 56.064 14.4018 56.096 14.0178 56.096ZM20.4657 54.728H20.5617C20.8257 54.856 21.1297 54.956 21.4737 55.028C21.8257 55.1 22.1937 55.136 22.5777 55.136C22.8337 55.136 23.0977 55.116 23.3697 55.076C23.6497 55.036 23.8817 54.948 24.0657 54.812C24.2577 54.676 24.3537 54.464 24.3537 54.176C24.3537 53.888 24.2417 53.684 24.0177 53.564C23.7937 53.444 23.5057 53.344 23.1537 53.264L22.7697 53.168C22.3937 53.072 22.0697 52.956 21.7977 52.82C21.5337 52.676 21.3297 52.5 21.1857 52.292C21.0417 52.076 20.9697 51.808 20.9697 51.488C20.9697 51.104 21.0777 50.752 21.2937 50.432C21.5177 50.112 21.8537 49.856 22.3017 49.664C22.7577 49.472 23.3297 49.376 24.0177 49.376C24.4017 49.376 24.7337 49.4 25.0137 49.448C25.2937 49.496 25.5537 49.568 25.7937 49.664L25.6017 50.648H25.5057C25.2577 50.552 25.0217 50.476 24.7977 50.42C24.5737 50.364 24.2817 50.336 23.9217 50.336C23.3697 50.336 22.9177 50.424 22.5657 50.6C22.2217 50.768 22.0497 51.032 22.0497 51.392C22.0497 51.6 22.1017 51.76 22.2057 51.872C22.3177 51.976 22.4697 52.06 22.6617 52.124C22.8537 52.18 23.0657 52.24 23.2977 52.304L23.6817 52.4C23.9937 52.48 24.2817 52.592 24.5457 52.736C24.8097 52.872 25.0217 53.056 25.1817 53.288C25.3497 53.512 25.4337 53.792 25.4337 54.128C25.4337 54.8 25.1657 55.296 24.6297 55.616C24.0937 55.936 23.3937 56.096 22.5297 56.096C22.1457 56.096 21.7457 56.068 21.3297 56.012C20.9137 55.964 20.5617 55.88 20.2737 55.76L20.4657 54.728ZM32.3897 56.096C31.7177 56.096 31.1537 55.988 30.6977 55.772C30.2417 55.556 29.8977 55.244 29.6657 54.836C29.4337 54.428 29.3177 53.936 29.3177 53.36C29.3177 52.84 29.3977 52.34 29.5577 51.86C29.7257 51.38 29.9617 50.952 30.2657 50.576C30.5777 50.192 30.9577 49.888 31.4057 49.664C31.8537 49.44 32.3577 49.328 32.9177 49.328C33.7577 49.328 34.3897 49.544 34.8137 49.976C35.2457 50.408 35.4617 50.96 35.4617 51.632C35.4617 51.896 35.4377 52.156 35.3897 52.412C35.3417 52.668 35.2857 52.904 35.2217 53.12H30.0857V52.208H34.2617C34.2857 52.112 34.3017 52.016 34.3097 51.92C34.3257 51.816 34.3337 51.736 34.3337 51.68C34.3337 51.248 34.2217 50.908 33.9977 50.66C33.7737 50.412 33.3977 50.288 32.8697 50.288C32.4857 50.288 32.1417 50.372 31.8377 50.54C31.5417 50.708 31.2897 50.928 31.0817 51.2C30.8737 51.472 30.7137 51.776 30.6017 52.112C30.4977 52.448 30.4457 52.784 30.4457 53.12V53.36C30.4457 53.96 30.6297 54.408 30.9977 54.704C31.3657 54.992 31.8617 55.136 32.4857 55.136C32.8937 55.136 33.2617 55.096 33.5897 55.016C33.9177 54.936 34.1737 54.848 34.3577 54.752H34.4537L34.2617 55.76C34.0697 55.856 33.8057 55.936 33.4697 56C33.1337 56.064 32.7737 56.096 32.3897 56.096ZM39.9416 51.296C39.9896 51.056 40.0296 50.82 40.0616 50.588C40.1016 50.348 40.1256 50.12 40.1336 49.904L40.1816 49.808C40.4056 49.728 40.6576 49.66 40.9376 49.604C41.2256 49.548 41.5096 49.504 41.7896 49.472C42.0776 49.44 42.3256 49.424 42.5336 49.424C42.7256 49.424 42.9056 49.428 43.0736 49.436C43.2416 49.444 43.3656 49.456 43.4456 49.472L43.2536 50.432H43.1576C43.0616 50.416 42.9456 50.404 42.8096 50.396C42.6816 50.388 42.5576 50.384 42.4376 50.384C42.1736 50.384 41.9056 50.404 41.6336 50.444C41.3616 50.476 41.1216 50.516 40.9136 50.564L41.1416 50.288C41.1336 50.432 41.1216 50.592 41.1056 50.768C41.0976 50.944 41.0776 51.12 41.0456 51.296L40.1336 56H39.0296L39.9416 51.296ZM46.9566 49.616V49.472H48.1086L49.0206 55.424L48.7806 55.328L51.9966 49.472H53.1006V49.616L49.5006 56H48.0606L46.9566 49.616ZM58.2451 56.144C57.4291 56.144 56.8011 55.984 56.3611 55.664C55.9211 55.336 55.7011 54.872 55.7011 54.272C55.7011 53.744 55.8371 53.316 56.1091 52.988C56.3891 52.652 56.7571 52.408 57.2131 52.256C57.6771 52.096 58.1811 52.016 58.7251 52.016C59.1571 52.016 59.5091 52.056 59.7811 52.136C60.0611 52.208 60.2531 52.264 60.3571 52.304V53.264C60.1411 53.168 59.9131 53.088 59.6731 53.024C59.4331 52.96 59.1331 52.928 58.7731 52.928C58.1491 52.928 57.6651 53.032 57.3211 53.24C56.9771 53.44 56.8051 53.768 56.8051 54.224C56.8051 54.584 56.9451 54.844 57.2251 55.004C57.5051 55.156 57.8611 55.232 58.2931 55.232C58.6531 55.232 58.9731 55.208 59.2531 55.16C59.5331 55.104 59.8051 55.016 60.0691 54.896L59.8531 55.256C59.8451 55.136 59.8411 55.02 59.8411 54.908C59.8411 54.796 59.8491 54.684 59.8651 54.572C59.8811 54.46 59.9011 54.344 59.9251 54.224L60.3451 52.064C60.4731 51.424 60.4171 50.968 60.1771 50.696C59.9371 50.424 59.4691 50.288 58.7731 50.288C58.4131 50.288 58.0811 50.328 57.7771 50.408C57.4731 50.488 57.2131 50.576 56.9971 50.672H56.8531L57.0451 49.664C57.3571 49.552 57.6571 49.468 57.9451 49.412C58.2411 49.356 58.5811 49.328 58.9651 49.328C59.6371 49.328 60.1731 49.436 60.5731 49.652C60.9731 49.86 61.2411 50.172 61.3771 50.588C61.5211 50.996 61.5331 51.504 61.4131 52.112L61.1251 53.6C61.0611 53.952 61.0051 54.292 60.9571 54.62C60.9091 54.94 60.8851 55.256 60.8851 55.568L60.8371 55.664C60.4291 55.808 60.0091 55.924 59.5771 56.012C59.1451 56.1 58.7011 56.144 58.2451 56.144ZM65.2352 54.728H65.3312C65.5952 54.856 65.8992 54.956 66.2432 55.028C66.5952 55.1 66.9632 55.136 67.3472 55.136C67.6032 55.136 67.8672 55.116 68.1392 55.076C68.4192 55.036 68.6512 54.948 68.8352 54.812C69.0272 54.676 69.1232 54.464 69.1232 54.176C69.1232 53.888 69.0112 53.684 68.7872 53.564C68.5632 53.444 68.2752 53.344 67.9232 53.264L67.5392 53.168C67.1632 53.072 66.8392 52.956 66.5672 52.82C66.3032 52.676 66.0992 52.5 65.9552 52.292C65.8112 52.076 65.7392 51.808 65.7392 51.488C65.7392 51.104 65.8472 50.752 66.0632 50.432C66.2872 50.112 66.6232 49.856 67.0712 49.664C67.5272 49.472 68.0992 49.376 68.7872 49.376C69.1712 49.376 69.5032 49.4 69.7832 49.448C70.0632 49.496 70.3232 49.568 70.5632 49.664L70.3712 50.648H70.2752C70.0272 50.552 69.7912 50.476 69.5672 50.42C69.3432 50.364 69.0512 50.336 68.6912 50.336C68.1392 50.336 67.6872 50.424 67.3352 50.6C66.9912 50.768 66.8192 51.032 66.8192 51.392C66.8192 51.6 66.8712 51.76 66.9752 51.872C67.0872 51.976 67.2392 52.06 67.4312 52.124C67.6232 52.18 67.8352 52.24 68.0672 52.304L68.4512 52.4C68.7632 52.48 69.0512 52.592 69.3152 52.736C69.5792 52.872 69.7912 53.056 69.9512 53.288C70.1192 53.512 70.2032 53.792 70.2032 54.128C70.2032 54.8 69.9352 55.296 69.3992 55.616C68.8632 55.936 68.1632 56.096 67.2992 56.096C66.9152 56.096 66.5152 56.068 66.0992 56.012C65.6832 55.964 65.3312 55.88 65.0432 55.76L65.2352 54.728Z" fill="white"/>
</svg>
