<svg width="97" height="56" viewBox="0 0 97 56" fill="none" xmlns="http://www.w3.org/2000/svg">
  <g clip-path="url(#clip0_16_741)">
    <path
      d="M15.4568 38.3135C13.6136 38.3135 11.8898 37.9938 10.2856 37.3544C8.71543 36.7149 7.38426 35.8232 6.29199 34.679L9.26159 30.7921C10.3538 31.768 11.3608 32.4747 12.2824 32.9122C13.2382 33.3161 14.0914 33.518 14.8424 33.518C15.4226 33.518 15.9346 33.4675 16.3784 33.3665C16.8562 33.2319 17.2318 33.0469 17.5048 32.8113C17.7778 32.5421 17.9144 32.2055 17.9144 31.8017C17.9144 31.2296 17.6754 30.7753 17.1976 30.4388C16.7538 30.1022 16.1736 29.833 15.4568 29.6311C14.74 29.3955 13.972 29.16 13.1528 28.9244C11.1048 28.285 9.61999 27.3596 8.69839 26.1481C7.81093 24.9029 7.36719 23.5568 7.36719 22.1097C7.36719 20.9992 7.65733 19.8887 8.23759 18.7781C8.85199 17.6339 9.80775 16.6917 11.1048 15.9513C12.436 15.1773 14.1426 14.7903 16.2248 14.7903C18.1022 14.7903 19.6894 14.9754 20.9864 15.3456C22.2834 15.7157 23.5122 16.3215 24.6728 17.1628L21.9592 21.3021C21.3106 20.7973 20.5768 20.3767 19.7576 20.0401C18.9726 19.67 18.2386 19.468 17.556 19.4344C16.9416 19.4007 16.4126 19.468 15.9688 19.6363C15.5592 19.8045 15.235 20.0233 14.996 20.2925C14.757 20.5617 14.6376 20.8478 14.6376 21.1507C14.6034 21.7901 14.8424 22.2949 15.3544 22.665C15.9006 23.0352 16.5832 23.3212 17.4024 23.5232C18.2216 23.7251 19.0238 23.9607 19.8088 24.2299C20.901 24.5664 21.8398 25.0207 22.6248 25.5928C23.4098 26.1649 24.0072 26.8548 24.4168 27.6624C24.8606 28.4364 25.0824 29.3787 25.0824 30.4892C25.0824 31.8354 24.724 33.1141 24.0072 34.3256C23.3246 35.5034 22.2664 36.4625 20.8328 37.2029C19.4334 37.9433 17.6414 38.3135 15.4568 38.3135ZM33.1856 6.10794H40.3536V15.6989H45.7808V21.2011H40.3536V37.8592H33.1856V21.2011H29.704V15.6989H33.1856V6.10794ZM51.2364 15.7999H58.4044V37.8592H51.2364V15.7999ZM51.0828 7.97566C51.0828 6.93243 51.4924 6.07429 52.3116 5.40124C53.165 4.72818 54.0694 4.39166 55.0252 4.39166C55.981 4.39166 56.8514 4.72818 57.6364 5.40124C58.4556 6.07429 58.8652 6.93243 58.8652 7.97566C58.8652 9.01892 58.4556 9.87706 57.6364 10.5501C56.8514 11.1895 55.981 11.5092 55.0252 11.5092C54.0694 11.5092 53.165 11.1895 52.3116 10.5501C51.4924 9.87706 51.0828 9.01892 51.0828 7.97566ZM79.8152 38.4649C78.484 38.4649 77.1698 38.2293 75.8728 37.7582C74.6098 37.2534 73.5518 36.5467 72.6984 35.6381L72.9032 33.5685V48.4597H65.7864V15.2951H71.9304L72.9544 19.5858L72.3912 18.0714C73.5518 17.0955 74.8488 16.2879 76.2824 15.6485C77.716 15.009 79.3714 14.6894 81.2488 14.6894C83.3312 14.6894 85.1912 15.1773 86.8296 16.1532C88.468 17.0955 89.748 18.4753 90.6696 20.2925C91.6256 22.0761 92.1032 24.2299 92.1032 26.7538C92.1032 29.2441 91.5744 31.3642 90.516 33.1141C89.4576 34.8641 88.0072 36.1934 86.164 37.102C84.3208 38.0106 82.2048 38.4649 79.8152 38.4649ZM78.3816 32.9122C79.5421 32.9122 80.6 32.6598 81.556 32.155C82.5456 31.6503 83.3312 30.9436 83.9112 30.0349C84.5256 29.0926 84.8328 28.0326 84.8328 26.8548C84.8328 25.6096 84.56 24.5327 84.0136 23.6241C83.5016 22.6818 82.7848 21.9583 81.8632 21.4535C80.976 20.9151 79.9858 20.6459 78.8936 20.6459C77.9378 20.6459 77.0845 20.7805 76.3336 21.0497C75.6168 21.2853 74.9682 21.6554 74.388 22.1602C73.8418 22.6313 73.364 23.2371 72.9544 23.9775V29.3787C73.2274 30.0854 73.62 30.708 74.132 31.2464C74.644 31.7849 75.2584 32.2055 75.9752 32.5084C76.7262 32.7776 77.5282 32.9122 78.3816 32.9122Z"
      fill="#004469" />
    <mask id="mask0_16_741" style="mask-type: luminance" maskUnits="userSpaceOnUse" x="0" y="0"
      width="97" height="53">
      <path d="M96.5 0H0.5V52.8451H96.5V0Z" fill="white" />
      <path
        d="M15.4568 38.3135C13.6136 38.3135 11.8898 37.9938 10.2856 37.3544C8.71543 36.7149 7.38426 35.8232 6.29199 34.679L9.26159 30.7921C10.3538 31.768 11.3608 32.4747 12.2824 32.9122C13.2382 33.3161 14.0914 33.518 14.8424 33.518C15.4226 33.518 15.9346 33.4675 16.3784 33.3665C16.8562 33.2319 17.2318 33.0469 17.5048 32.8113C17.7778 32.5421 17.9144 32.2055 17.9144 31.8017C17.9144 31.2296 17.6754 30.7753 17.1976 30.4388C16.7538 30.1022 16.1736 29.833 15.4568 29.6311C14.74 29.3955 13.972 29.16 13.1528 28.9244C11.1048 28.285 9.61999 27.3596 8.69839 26.1481C7.81093 24.9029 7.36719 23.5568 7.36719 22.1097C7.36719 20.9992 7.65733 19.8887 8.23759 18.7781C8.85199 17.6339 9.80775 16.6917 11.1048 15.9513C12.436 15.1773 14.1426 14.7903 16.2248 14.7903C18.1022 14.7903 19.6894 14.9754 20.9864 15.3456C22.2834 15.7157 23.5122 16.3215 24.6728 17.1628L21.9592 21.3021C21.3106 20.7973 20.5768 20.3767 19.7576 20.0401C18.9726 19.67 18.2386 19.468 17.556 19.4344C16.9416 19.4007 16.4126 19.468 15.9688 19.6363C15.5592 19.8045 15.235 20.0233 14.996 20.2925C14.757 20.5617 14.6376 20.8478 14.6376 21.1507C14.6034 21.7901 14.8424 22.2949 15.3544 22.665C15.9006 23.0352 16.5832 23.3212 17.4024 23.5232C18.2216 23.7251 19.0238 23.9607 19.8088 24.2299C20.901 24.5664 21.8398 25.0207 22.6248 25.5928C23.4098 26.1649 24.0072 26.8548 24.4168 27.6624C24.8606 28.4364 25.0824 29.3787 25.0824 30.4892C25.0824 31.8354 24.724 33.1141 24.0072 34.3256C23.3246 35.5034 22.2664 36.4625 20.8328 37.2029C19.4334 37.9433 17.6414 38.3135 15.4568 38.3135ZM33.1856 6.10794H40.3536V15.6989H45.7808V21.2011H40.3536V37.8592H33.1856V21.2011H29.704V15.6989H33.1856V6.10794ZM51.2364 15.7999H58.4044V37.8592H51.2364V15.7999ZM51.0828 7.97566C51.0828 6.93243 51.4924 6.07429 52.3116 5.40124C53.165 4.72818 54.0694 4.39166 55.0252 4.39166C55.981 4.39166 56.8514 4.72818 57.6364 5.40124C58.4556 6.07429 58.8652 6.93243 58.8652 7.97566C58.8652 9.01892 58.4556 9.87706 57.6364 10.5501C56.8514 11.1895 55.981 11.5092 55.0252 11.5092C54.0694 11.5092 53.165 11.1895 52.3116 10.5501C51.4924 9.87706 51.0828 9.01892 51.0828 7.97566ZM79.8152 38.4649C78.484 38.4649 77.1698 38.2293 75.8728 37.7582C74.6098 37.2534 73.5518 36.5467 72.6984 35.6381L72.9032 33.5685V48.4597H65.7864V15.2951H71.9304L72.9544 19.5858L72.3912 18.0714C73.5518 17.0955 74.8488 16.2879 76.2824 15.6485C77.716 15.009 79.3714 14.6894 81.2488 14.6894C83.3312 14.6894 85.1912 15.1773 86.8296 16.1532C88.468 17.0955 89.748 18.4753 90.6696 20.2925C91.6256 22.0761 92.1032 24.2299 92.1032 26.7538C92.1032 29.2441 91.5744 31.3642 90.516 33.1141C89.4576 34.8641 88.0072 36.1934 86.164 37.102C84.3208 38.0106 82.2048 38.4649 79.8152 38.4649ZM78.3816 32.9122C79.5421 32.9122 80.6 32.6598 81.556 32.155C82.5456 31.6503 83.3312 30.9436 83.9112 30.0349C84.5256 29.0926 84.8328 28.0326 84.8328 26.8548C84.8328 25.6096 84.56 24.5327 84.0136 23.6241C83.5016 22.6818 82.7848 21.9583 81.8632 21.4535C80.976 20.9151 79.9858 20.6459 78.8936 20.6459C77.9378 20.6459 77.0845 20.7805 76.3336 21.0497C75.6168 21.2853 74.9682 21.6554 74.388 22.1602C73.8418 22.6313 73.364 23.2371 72.9544 23.9775V29.3787C73.2274 30.0854 73.62 30.708 74.132 31.2464C74.644 31.7849 75.2584 32.2055 75.9752 32.5084C76.7262 32.7776 77.5282 32.9122 78.3816 32.9122Z"
        fill="black" />
    </mask>
    <g mask="url(#mask0_16_741)">
      <path
        d="M10.2856 37.3544L8.75854 40.9993L8.77246 41.005L8.78646 41.0106L10.2856 37.3544ZM6.29198 34.679L3.09696 32.3062L1.06848 34.9613L3.37918 37.3818L6.29198 34.679ZM9.26158 30.7921L11.9477 27.8699L8.70198 24.9699L6.06656 28.4194L9.26158 30.7921ZM12.2824 32.9122L10.5471 36.4655L10.6261 36.503L10.7067 36.537L12.2824 32.9122ZM16.3784 33.3665L17.2778 37.2092L17.3782 37.1864L17.4773 37.1584L16.3784 33.3665ZM17.5048 32.8113L20.1388 35.7792L20.239 35.6927L20.3332 35.5998L17.5048 32.8113ZM17.1976 30.4388L14.7587 33.5646L14.8149 33.6073L14.8726 33.6479L17.1976 30.4388ZM15.4568 29.6311L14.1919 33.3724L14.2743 33.3995L14.3579 33.423L15.4568 29.6311ZM13.1528 28.9244L11.9452 32.684L11.9889 32.6977L12.0328 32.7103L13.1528 28.9244ZM8.69838 26.1481L5.42561 28.4154L5.46122 28.4654L5.49838 28.5143L8.69838 26.1481ZM8.23758 18.7781L4.70242 16.933L4.69194 16.9525L4.68168 16.9721L8.23758 18.7781ZM11.1048 15.9513L13.1089 19.3642L13.1229 19.3563L13.1367 19.3482L11.1048 15.9513ZM24.6728 17.1628L28.0321 19.3035L30.0765 16.1852L27.0424 13.9856L24.6728 17.1628ZM21.9592 21.3021L19.4806 24.3974L22.9317 27.0836L25.3185 23.4428L21.9592 21.3021ZM19.7576 20.0401L18.0317 23.5978L18.1244 23.6415L18.2191 23.6804L19.7576 20.0401ZM17.556 19.4344L17.3341 23.372L17.3452 23.3726L17.3562 23.3731L17.556 19.4344ZM15.9688 19.6363L14.5329 15.9555L14.4813 15.9751L14.4303 15.996L15.9688 19.6363ZM14.6376 21.1506L18.6321 21.3579L18.6376 21.2544V21.1506H14.6376ZM15.3544 22.665L12.9889 25.8452L13.0381 25.8808L13.0883 25.9148L15.3544 22.665ZM19.8088 24.2299L18.4947 27.9546L18.5549 27.9752L18.6157 27.994L19.8088 24.2299ZM24.4168 27.6624L20.8391 29.4261L20.8845 29.5157L20.9345 29.6029L24.4168 27.6624ZM24.0072 34.3256L20.5521 32.3385L20.5431 32.3537L20.5342 32.369L24.0072 34.3256ZM20.8328 37.2029L18.9768 33.7095L18.9591 33.7186L18.9415 33.7279L20.8328 37.2029ZM15.4568 34.3698C14.0935 34.3698 12.8822 34.1356 11.7847 33.6981L8.78646 41.0106C10.8975 41.852 13.1337 42.2571 15.4568 42.2571V34.3698ZM11.8126 33.7094C10.7317 33.2692 9.88286 32.6865 9.20478 31.9762L3.37918 37.3818C4.88563 38.9599 6.69912 40.1607 8.75854 40.9993L11.8126 33.7094ZM9.48702 37.0517L12.4566 33.1649L6.06656 28.4194L3.09696 32.3062L9.48702 37.0517ZM6.5755 33.7143C7.83848 34.8428 9.16398 35.8089 10.5471 36.4655L14.0177 29.359C13.5576 29.1406 12.8692 28.6933 11.9477 27.8699L6.5755 33.7143ZM10.7067 36.537C11.9814 37.0756 13.3841 37.4616 14.8424 37.4616V29.5743C14.7988 29.5743 14.4949 29.5565 13.8581 29.2875L10.7067 36.537ZM14.8424 37.4616C15.6473 37.4616 16.4717 37.3926 17.2778 37.2092L15.4789 29.5238C15.3977 29.5424 15.1981 29.5743 14.8424 29.5743V37.4616ZM17.4773 37.1584C18.3245 36.9199 19.2895 36.5118 20.1388 35.7792L14.8708 29.8433C15.027 29.7086 15.159 29.6342 15.2295 29.5995C15.2989 29.5652 15.3226 29.5625 15.2795 29.5746L17.4773 37.1584ZM20.3332 35.5998C21.4054 34.5427 21.9144 33.181 21.9144 31.8017H13.9144C13.9144 31.5591 13.9569 31.2402 14.0981 30.8923C14.2411 30.5399 14.4495 30.2463 14.6764 30.0227L20.3332 35.5998ZM21.9144 31.8017C21.9144 29.9378 21.0365 28.2959 19.5225 27.2296L14.8726 33.6479C14.6651 33.5017 14.3921 33.2427 14.1841 32.8472C13.9753 32.45 13.9144 32.072 13.9144 31.8017H21.9144ZM19.6365 27.3129C18.6841 26.5907 17.6059 26.135 16.5557 25.8392L14.3579 33.423C14.5416 33.4748 14.6596 33.5218 14.7264 33.5528C14.7928 33.5835 14.7954 33.5924 14.7587 33.5646L19.6365 27.3129ZM16.7217 25.8898C15.9512 25.6366 15.1345 25.3863 14.2728 25.1385L12.0328 32.7103C12.8095 32.9337 13.5288 33.1544 14.1919 33.3724L16.7217 25.8898ZM14.3604 25.1647C12.7999 24.6775 12.1555 24.1198 11.8984 23.7819L5.49838 28.5143C7.08446 30.5993 9.40966 31.8925 11.9452 32.684L14.3604 25.1647ZM11.9712 23.8807C11.531 23.2632 11.3672 22.7018 11.3672 22.1097H3.36718C3.36718 24.4117 4.0908 26.5427 5.42561 28.4154L11.9712 23.8807ZM11.3672 22.1097C11.3672 21.7023 11.4682 21.2067 11.7935 20.5842L4.68168 16.9721C3.84643 18.5706 3.36718 20.2961 3.36718 22.1097H11.3672ZM11.7727 20.6233C11.9885 20.2215 12.3673 19.7876 13.1089 19.3642L9.10062 12.5384C7.24817 13.5958 5.71548 15.0463 4.70242 16.933L11.7727 20.6233ZM13.1367 19.3482C13.6744 19.0357 14.6178 18.734 16.2248 18.734V10.8466C13.6675 10.8466 11.1976 11.319 9.07286 12.5544L13.1367 19.3482ZM16.2248 18.734C17.8607 18.734 19.0485 18.8981 19.8741 19.1337L22.0986 11.5575C20.3301 11.0527 18.3436 10.8466 16.2248 10.8466V18.734ZM19.8741 19.1337C20.6895 19.3664 21.4965 19.7552 22.3032 20.3401L27.0424 13.9856C25.528 12.8877 23.8774 12.0651 22.0986 11.5575L19.8741 19.1337ZM21.3134 15.0221L18.5998 19.1614L25.3185 23.4428L28.0321 19.3035L21.3134 15.0221ZM24.4377 18.2068C23.4821 17.463 22.4275 16.8646 21.2961 16.3998L18.2191 23.6804C18.7261 23.8887 19.1391 24.1316 19.4806 24.3974L24.4377 18.2068ZM21.4834 16.4824C20.3457 15.946 19.0908 15.5615 17.7557 15.4956L17.3562 23.3731C17.3865 23.3746 17.5993 23.394 18.0317 23.5978L21.4834 16.4824ZM17.7779 15.4968C16.7581 15.4409 15.6357 15.5373 14.5329 15.9555L17.4047 23.3171C17.2953 23.3585 17.2241 23.3691 17.2103 23.3709C17.1979 23.3724 17.2354 23.3665 17.3341 23.372L17.7779 15.4968ZM14.4303 15.996C13.5794 16.3455 12.7077 16.8821 11.9857 17.6956L18.0063 22.8894C17.7621 23.1645 17.5389 23.2636 17.5073 23.2766L14.4303 15.996ZM11.9857 17.6956C11.2306 18.5464 10.6376 19.7246 10.6376 21.1506H18.6376C18.6376 21.5255 18.5607 21.8876 18.4259 22.2105C18.2948 22.5244 18.1313 22.7485 18.0063 22.8894L11.9857 17.6956ZM10.6431 20.9434C10.5401 22.8738 11.3598 24.6674 12.9889 25.8452L17.7198 19.4848C17.9377 19.6423 18.2174 19.9218 18.4159 20.3411C18.6126 20.7566 18.6442 21.1294 18.6321 21.3579L10.6431 20.9434ZM13.0883 25.9148C14.1193 26.6136 15.2709 27.0628 16.4322 27.3491L18.3725 19.6973C17.8954 19.5797 17.6817 19.4568 17.6205 19.4153L13.0883 25.9148ZM16.4322 27.3491C17.1372 27.5228 17.8245 27.7248 18.4947 27.9546L21.1229 20.5051C20.2229 20.1965 19.306 19.9273 18.3725 19.6973L16.4322 27.3491ZM18.6157 27.994C19.354 28.2215 19.8765 28.494 20.2472 28.7642L25.0024 22.4214C23.8029 21.5474 22.4481 20.9113 21.0019 20.4657L18.6157 27.994ZM20.2472 28.7642C20.5596 28.9918 20.7299 29.2108 20.8391 29.4261L27.9945 25.8987C27.2845 24.4987 26.2601 23.338 25.0024 22.4214L20.2472 28.7642ZM20.9345 29.6029C20.9642 29.6548 21.0824 29.8916 21.0824 30.4892H29.0824C29.0824 28.8658 28.7568 27.2181 27.899 25.7219L20.9345 29.6029ZM21.0824 30.4892C21.0824 31.1071 20.9277 31.7038 20.5521 32.3385L27.4623 36.3128C28.5203 34.5245 29.0824 32.5635 29.0824 30.4892H21.0824ZM20.5342 32.369C20.2933 32.7848 19.8548 33.256 18.9768 33.7095L22.6888 40.6964C24.678 39.6691 26.3558 38.2221 27.4801 36.2822L20.5342 32.369ZM18.9415 33.7279C18.3008 34.0669 17.2169 34.3698 15.4568 34.3698V42.2571C18.0657 42.2571 20.5659 41.8197 22.7241 40.6779L18.9415 33.7279ZM33.1856 6.10794V2.16428H29.1856V6.10794H33.1856ZM40.3536 6.10794H44.3536V2.16428H40.3536V6.10794ZM40.3536 15.6989H36.3536V19.6426H40.3536V15.6989ZM45.7808 15.6989H49.7808V11.7553H45.7808V15.6989ZM45.7808 21.2011V25.1448H49.7808V21.2011H45.7808ZM40.3536 21.2011V17.2575H36.3536V21.2011H40.3536ZM40.3536 37.8592V41.8028H44.3536V37.8592H40.3536ZM33.1856 37.8592H29.1856V41.8028H33.1856V37.8592ZM33.1856 21.2011H37.1856V17.2575H33.1856V21.2011ZM29.704 21.2011H25.704V25.1448H29.704V21.2011ZM29.704 15.6989V11.7553H25.704V15.6989H29.704ZM33.1856 15.6989V19.6426H37.1856V15.6989H33.1856ZM33.1856 10.0516H40.3536V2.16428H33.1856V10.0516ZM36.3536 6.10794V15.6989H44.3536V6.10794H36.3536ZM40.3536 19.6426H45.7808V11.7553H40.3536V19.6426ZM41.7808 15.6989V21.2011H49.7808V15.6989H41.7808ZM45.7808 17.2575H40.3536V25.1448H45.7808V17.2575ZM36.3536 21.2011V37.8592H44.3536V21.2011H36.3536ZM40.3536 33.9155H33.1856V41.8028H40.3536V33.9155ZM37.1856 37.8592V21.2011H29.1856V37.8592H37.1856ZM33.1856 17.2575H29.704V25.1448H33.1856V17.2575ZM33.704 21.2011V15.6989H25.704V21.2011H33.704ZM29.704 19.6426H33.1856V11.7553H29.704V19.6426ZM37.1856 15.6989V6.10794H29.1856V15.6989H37.1856ZM51.2364 15.7999V11.8562H47.2364V15.7999H51.2364ZM58.4044 15.7999H62.4044V11.8562H58.4044V15.7999ZM58.4044 37.8592V41.8028H62.4044V37.8592H58.4044ZM51.2364 37.8592H47.2364V41.8028H51.2364V37.8592ZM52.3116 5.40124L49.8128 2.32176L49.7816 2.34639L49.7509 2.37163L52.3116 5.40124ZM57.6364 5.40124L55.0117 8.37713L55.0433 8.40434L55.0757 8.43084L57.6364 5.40124ZM57.6364 10.5501L60.1839 13.5905L60.1905 13.5851L60.1971 13.5797L57.6364 10.5501ZM52.3116 10.5501L49.7509 13.5797L49.8198 13.6363L49.8913 13.6899L52.3116 10.5501ZM51.2364 19.7435H58.4044V11.8562H51.2364V19.7435ZM54.4044 15.7999V37.8592H62.4044V15.7999H54.4044ZM58.4044 33.9155H51.2364V41.8028H58.4044V33.9155ZM55.2364 37.8592V15.7999H47.2364V37.8592H55.2364ZM55.0828 7.97566C55.0828 7.97022 55.0832 7.99672 55.0723 8.04728C55.0612 8.09902 55.0411 8.16212 55.0093 8.22885C54.9396 8.37484 54.8622 8.43912 54.8723 8.43084L49.7509 2.37163C48.0279 3.7872 47.0828 5.75152 47.0828 7.97566H55.0828ZM54.8104 8.48069C54.9516 8.36932 55.0297 8.3384 55.0422 8.33375C55.0494 8.33107 55.0479 8.33217 55.0399 8.33367C55.0364 8.3343 55.0329 8.33477 55.0297 8.33501C55.0265 8.33532 55.0249 8.33532 55.0252 8.33532V0.447998C53.0329 0.447998 51.2684 1.17371 49.8128 2.32176L54.8104 8.48069ZM55.0252 8.33532C55.0254 8.33532 55.0221 8.33532 55.0158 8.33477C55.0094 8.33414 55.001 8.33312 54.991 8.3313C54.9699 8.32736 54.95 8.32152 54.9345 8.31553C54.9192 8.30961 54.9166 8.30685 54.9273 8.31348C54.9386 8.32034 54.9672 8.33903 55.0117 8.37713L60.2611 2.42534C58.8177 1.18786 57.0339 0.447998 55.0252 0.447998V8.33532ZM55.0757 8.43084C55.0857 8.43912 55.0084 8.37484 54.9387 8.22885C54.9069 8.16212 54.8868 8.09902 54.8757 8.04728C54.8648 7.99672 54.8652 7.97022 54.8652 7.97566H62.8652C62.8652 5.75152 61.9201 3.7872 60.1971 2.37163L55.0757 8.43084ZM54.8652 7.97566C54.8652 7.98111 54.8648 7.9546 54.8757 7.90405C54.8868 7.8523 54.9069 7.78924 54.9387 7.72249C55.0084 7.57649 55.0857 7.51217 55.0757 7.52048L60.1971 13.5797C61.9201 12.1641 62.8652 10.1998 62.8652 7.97566H54.8652ZM55.0889 7.50967C55.0465 7.54419 55.0182 7.56197 55.005 7.56962C54.9923 7.57701 54.9904 7.57679 54.9984 7.57387C55.0065 7.57086 55.0169 7.56802 55.0266 7.56632C55.0361 7.56465 55.0368 7.56552 55.0252 7.56552V15.4528C56.9743 15.4528 58.7325 14.7726 60.1839 13.5905L55.0889 7.50967ZM55.0252 7.56552C55.01 7.56552 55.0013 7.5647 54.9798 7.55708C54.9534 7.54777 54.8705 7.51418 54.7319 7.41029L49.8913 13.6899C51.3517 14.7842 53.0898 15.4528 55.0252 15.4528V7.56552ZM54.8723 7.52048C54.8622 7.51217 54.9396 7.57649 55.0093 7.72249C55.0411 7.78924 55.0612 7.8523 55.0723 7.90405C55.0832 7.9546 55.0828 7.98111 55.0828 7.97566H47.0828C47.0828 10.1998 48.0279 12.1641 49.7509 13.5797L54.8723 7.52048ZM75.8728 37.7582L74.37 41.4129L74.4296 41.4368L74.49 41.4587L75.8728 37.7582ZM72.6984 35.6381L68.7173 35.2552L68.5429 37.0179L69.7633 38.3174L72.6984 35.6381ZM72.9032 33.5685H76.9032L68.9221 33.1855L72.9032 33.5685ZM72.9032 48.4597V52.4034H76.9032V48.4597H72.9032ZM65.7864 48.4597H61.7864V52.4034H65.7864V48.4597ZM65.7864 15.2951V11.3514H61.7864V15.2951H65.7864ZM71.9304 15.2951L75.8241 14.3918L75.0985 11.3514H71.9304V15.2951ZM72.9544 19.5858L69.1989 20.9434L76.8481 18.6825L72.9544 19.5858ZM72.3912 18.0714L69.7954 15.0709L67.6773 16.8521L68.6357 19.4291L72.3912 18.0714ZM86.8296 16.1532L84.7608 19.5287L84.7872 19.5444L84.8144 19.5597L86.8296 16.1532ZM90.6696 20.2925L87.092 22.0562L87.112 22.0956L87.1328 22.1347L90.6696 20.2925ZM81.556 32.155L79.7183 28.6522L79.6926 28.6653L79.6671 28.6788L81.556 32.155ZM83.9112 30.0349L80.5464 27.9024L80.536 27.918L80.5264 27.9337L83.9112 30.0349ZM84.0136 23.6241L80.4877 25.4864L80.5288 25.5614L80.5728 25.6346L84.0136 23.6241ZM81.8632 21.4535L79.7668 24.8122L79.8427 24.8582L79.9206 24.9009L81.8632 21.4535ZM76.3336 21.0497L77.5985 24.791L77.6497 24.7742L77.7005 24.7559L76.3336 21.0497ZM74.388 22.1602L77.022 25.1281L77.0282 25.1228L77.0345 25.1173L74.388 22.1602ZM72.9544 23.9775L69.4428 22.089L68.9544 22.9718V23.9775H72.9544ZM72.9544 29.3787H68.9544V30.1044L69.2165 30.7826L72.9544 29.3787ZM75.9752 32.5084L74.3995 36.1332L74.5027 36.1768L74.6082 36.2146L75.9752 32.5084ZM79.8152 34.5212C78.9739 34.5212 78.1271 34.3742 77.2556 34.0577L74.49 41.4587C76.2125 42.0844 77.9941 42.4086 79.8152 42.4086V34.5212ZM77.3756 34.1035C76.61 33.7974 76.0547 33.4073 75.6334 32.9588L69.7633 38.3174C71.0487 39.6861 72.6097 40.7094 74.37 41.4129L77.3756 34.1035ZM76.6795 36.021L76.8843 33.9514L68.9221 33.1855L68.7173 35.2552L76.6795 36.021ZM68.9032 33.5685V48.4597H76.9032V33.5685H68.9032ZM72.9032 44.5161H65.7864V52.4034H72.9032V44.5161ZM69.7864 48.4597V15.2951H61.7864V48.4597H69.7864ZM65.7864 19.2388H71.9304V11.3514H65.7864V19.2388ZM68.0367 16.1984L69.0607 20.4891L76.8481 18.6825L75.8241 14.3918L68.0367 16.1984ZM76.7099 18.2282L76.1467 16.7138L68.6357 19.4291L69.1989 20.9434L76.7099 18.2282ZM74.987 21.0719C75.8526 20.3439 76.8289 19.7331 77.931 19.2415L74.6337 12.0554C72.8686 12.8426 71.2508 13.8471 69.7954 15.0709L74.987 21.0719ZM77.931 19.2415C78.7564 18.8734 79.8319 18.633 81.2488 18.633V10.7457C78.911 10.7457 76.6756 11.1446 74.6337 12.0554L77.931 19.2415ZM81.2488 18.633C82.668 18.633 83.8008 18.9569 84.7608 19.5287L88.8984 12.7778C86.5816 11.3978 83.9936 10.7457 81.2488 10.7457V18.633ZM84.8144 19.5597C85.7224 20.0823 86.4864 20.8628 87.092 22.0562L94.2472 18.5288C93.0096 16.0878 91.2136 14.1088 88.8448 12.7468L84.8144 19.5597ZM87.1328 22.1347C87.7176 23.2255 88.1032 24.7137 88.1032 26.7538H96.1032C96.1032 23.746 95.5336 20.9267 94.2064 18.4503L87.1328 22.1347ZM88.1032 26.7538C88.1032 28.6909 87.6952 30.0781 87.08 31.0947L93.952 35.1335C95.4536 32.6503 96.1032 29.7973 96.1032 26.7538H88.1032ZM87.08 31.0947C86.4128 32.1991 85.5328 33.0041 84.3752 33.5747L87.9528 40.6293C90.4816 39.3826 92.5032 37.5291 93.952 35.1335L87.08 31.0947ZM84.3752 33.5747C83.1696 34.1689 81.6824 34.5212 79.8152 34.5212V42.4086C82.7264 42.4086 85.472 41.8523 87.9528 40.6293L84.3752 33.5747ZM78.3816 36.8559C80.1535 36.8559 81.8672 36.4644 83.4448 35.6313L79.6671 28.6788C79.3329 28.8552 78.9308 28.9686 78.3816 28.9686V36.8559ZM83.3936 35.6579C85.0016 34.8381 86.3272 33.6539 87.296 32.1362L80.5264 27.9337C80.335 28.2332 80.0904 28.4624 79.7183 28.6522L83.3936 35.6579ZM87.276 32.1675C88.3272 30.5556 88.8328 28.7479 88.8328 26.8548H80.8328C80.8328 27.3173 80.724 27.6298 80.5464 27.9024L87.276 32.1675ZM88.8328 26.8548C88.8328 25.0299 88.4272 23.232 87.4544 21.6136L80.5728 25.6346C80.692 25.8334 80.8328 26.1894 80.8328 26.8548H88.8328ZM87.5392 21.7618C86.676 20.1724 85.4184 18.8894 83.8056 18.0061L79.9206 24.9009C80.1512 25.0272 80.3273 25.1913 80.4877 25.4864L87.5392 21.7618ZM83.9592 18.0949C82.4104 17.1551 80.6888 16.7022 78.8936 16.7022V24.5895C79.2829 24.5895 79.5409 24.6751 79.7668 24.8122L83.9592 18.0949ZM78.8936 16.7022C77.5606 16.7022 76.2321 16.8898 74.9666 17.3434L77.7005 24.7559C77.9369 24.6712 78.3151 24.5895 78.8936 24.5895V16.7022ZM75.0687 17.3084C73.8301 17.7154 72.7143 18.3569 71.7415 19.2031L77.0345 25.1173C77.2222 24.954 77.4034 24.8551 77.5985 24.791L75.0687 17.3084ZM71.754 19.1923C70.796 20.0187 70.0386 21.012 69.4428 22.089L76.466 25.8659C76.6893 25.4622 76.8877 25.2439 77.022 25.1281L71.754 19.1923ZM68.9544 23.9775V29.3787H76.9544V23.9775H68.9544ZM69.2165 30.7826C69.6701 31.9568 70.337 33.0215 71.2138 33.9437L77.0501 28.5492C76.903 28.3944 76.7848 28.214 76.6923 27.9748L69.2165 30.7826ZM71.2138 33.9437C72.1193 34.896 73.1967 35.625 74.3995 36.1332L77.5509 28.8836C77.3201 28.7861 77.1686 28.6738 77.0501 28.5492L71.2138 33.9437ZM74.6082 36.2146C75.8262 36.6513 77.0939 36.8559 78.3816 36.8559V28.9686C77.9626 28.9686 77.626 28.9039 77.3421 28.8021L74.6082 36.2146Z"
        fill="white" />
    </g>
    <path
      d="M7.12393 46.9138H8.33993L11.5399 51.2676H10.1959L7.12393 46.9138ZM5.52393 42.4338H6.61193V51.2676H5.52393V42.4338ZM6.12553 43.3803V42.4338H7.95593C8.53617 42.4338 9.05249 42.5432 9.50473 42.7619C9.96553 42.9723 10.3282 43.2751 10.5927 43.6705C10.8658 44.0659 11.0023 44.5371 11.0023 45.0839C11.0023 45.6224 10.8658 46.0935 10.5927 46.4973C10.3282 46.8927 9.96553 47.1999 9.50473 47.4186C9.05249 47.6289 8.53617 47.7341 7.95593 47.7341H6.12553V46.7876H7.95593C8.33993 46.7876 8.67697 46.7203 8.96713 46.5857C9.26577 46.4511 9.49617 46.2576 9.65833 46.0052C9.82897 45.7528 9.91433 45.4457 9.91433 45.0839C9.91433 44.7221 9.82897 44.4151 9.65833 44.1627C9.49617 43.9103 9.26577 43.7168 8.96713 43.5822C8.67697 43.4476 8.33993 43.3803 7.95593 43.3803H6.12553ZM16.0528 51.3938C15.5067 51.3938 15.0203 51.2676 14.5936 51.0152C14.1755 50.7544 13.847 50.3968 13.608 49.9425C13.3776 49.4882 13.2624 48.9624 13.2624 48.3651C13.2624 47.7593 13.3819 47.2293 13.6208 46.775C13.8683 46.3207 14.2096 45.9673 14.6448 45.7149C15.0886 45.4625 15.6006 45.3363 16.1808 45.3363C16.7611 45.3363 17.256 45.4584 17.6656 45.7023C18.0838 45.9379 18.4038 46.2786 18.6256 46.7245C18.8475 47.1704 18.9584 47.7004 18.9584 48.3146C18.9584 48.3735 18.9542 48.4366 18.9456 48.5039C18.9456 48.5628 18.9456 48.6007 18.9456 48.6175H13.9152V47.7593H18.1392L17.7296 48.3398C17.7552 48.2978 17.7808 48.2347 17.8064 48.1505C17.832 48.058 17.8448 47.9823 17.8448 47.9234C17.8448 47.5785 17.7723 47.2798 17.6272 47.0274C17.4907 46.775 17.2987 46.5772 17.0512 46.4343C16.8038 46.2913 16.5136 46.2197 16.1808 46.2197C15.7883 46.2197 15.4512 46.3039 15.1696 46.4721C14.8966 46.632 14.6832 46.8675 14.5296 47.1788C14.3846 47.4817 14.3078 47.8561 14.2992 48.302C14.2992 48.7563 14.3718 49.1433 14.5168 49.463C14.6619 49.7827 14.8752 50.0267 15.1568 50.1949C15.4384 50.3632 15.7798 50.4473 16.1808 50.4473C16.5819 50.4473 16.936 50.3632 17.2432 50.1949C17.5504 50.0182 17.8107 49.7532 18.024 49.3999L18.856 49.9173C18.5488 50.4053 18.1606 50.7754 17.6912 51.0278C17.2304 51.2718 16.6843 51.3938 16.0528 51.3938ZM21.7571 49.4882C21.8766 49.6649 22.0131 49.829 22.1667 49.9804C22.3203 50.1318 22.4953 50.2538 22.6915 50.3464C22.8963 50.4305 23.1182 50.4726 23.3571 50.4726C23.6473 50.4726 23.8734 50.4095 24.0355 50.2833C24.2062 50.1486 24.2915 49.9678 24.2915 49.7406C24.2915 49.5387 24.2233 49.3705 24.0867 49.2358C23.9587 49.0928 23.7923 48.975 23.5875 48.8825C23.3827 48.7815 23.1651 48.689 22.9347 48.6048C22.6787 48.5039 22.4185 48.3861 22.1539 48.2515C21.8979 48.1085 21.6803 47.9276 21.5011 47.7088C21.3305 47.4817 21.2451 47.1999 21.2451 46.8633C21.2451 46.5184 21.3347 46.2323 21.5139 46.0052C21.7017 45.778 21.9406 45.6098 22.2307 45.5004C22.5294 45.391 22.8366 45.3363 23.1523 45.3363C23.4681 45.3363 23.7625 45.3868 24.0355 45.4878C24.3171 45.5887 24.5646 45.7234 24.7779 45.8916C24.9913 46.0598 25.1577 46.2534 25.2771 46.4721L24.4579 46.9895C24.2958 46.7708 24.091 46.5899 23.8435 46.4469C23.6046 46.3039 23.3315 46.2323 23.0243 46.2323C22.811 46.2323 22.6275 46.2786 22.4739 46.3712C22.3203 46.4637 22.2435 46.6067 22.2435 46.8002C22.2435 46.9517 22.3033 47.0863 22.4227 47.2041C22.5422 47.3218 22.6958 47.427 22.8835 47.5195C23.0713 47.6121 23.2675 47.7004 23.4723 47.7846C23.8137 47.9192 24.1251 48.0664 24.4067 48.2263C24.6883 48.3777 24.9102 48.5628 25.0723 48.7815C25.243 49.0002 25.3283 49.2821 25.3283 49.627C25.3283 50.1318 25.1406 50.5525 24.7651 50.889C24.3982 51.2256 23.9118 51.3938 23.3059 51.3938C22.9134 51.3938 22.5593 51.3265 22.2435 51.1919C21.9278 51.0489 21.659 50.868 21.4371 50.6492C21.2238 50.4305 21.0617 50.2075 20.9507 49.9804L21.7571 49.4882ZM30.1068 51.3938C29.5607 51.3938 29.0743 51.2676 28.6476 51.0152C28.2295 50.7544 27.901 50.3968 27.662 49.9425C27.4316 49.4882 27.3164 48.9624 27.3164 48.3651C27.3164 47.7593 27.4359 47.2293 27.6748 46.775C27.9223 46.3207 28.2636 45.9673 28.6988 45.7149C29.1426 45.4625 29.6546 45.3363 30.2348 45.3363C30.8151 45.3363 31.31 45.4584 31.7196 45.7023C32.1378 45.9379 32.4578 46.2786 32.6796 46.7245C32.9015 47.1704 33.0124 47.7004 33.0124 48.3146C33.0124 48.3735 33.0082 48.4366 32.9996 48.5039C32.9996 48.5628 32.9996 48.6007 32.9996 48.6175H27.9692V47.7593H32.1932L31.7836 48.3398C31.8092 48.2978 31.8348 48.2347 31.8604 48.1505C31.886 48.058 31.8988 47.9823 31.8988 47.9234C31.8988 47.5785 31.8263 47.2798 31.6812 47.0274C31.5447 46.775 31.3527 46.5772 31.1052 46.4343C30.8578 46.2913 30.5676 46.2197 30.2348 46.2197C29.8423 46.2197 29.5052 46.3039 29.2236 46.4721C28.9506 46.632 28.7372 46.8675 28.5836 47.1788C28.4386 47.4817 28.3618 47.8561 28.3532 48.302C28.3532 48.7563 28.4258 49.1433 28.5708 49.463C28.7159 49.7827 28.9292 50.0267 29.2108 50.1949C29.4924 50.3632 29.8338 50.4473 30.2348 50.4473C30.6359 50.4473 30.99 50.3632 31.2972 50.1949C31.6044 50.0182 31.8647 49.7532 32.078 49.3999L32.91 49.9173C32.6028 50.4053 32.2146 50.7754 31.7452 51.0278C31.2844 51.2718 30.7383 51.3938 30.1068 51.3938ZM36.5919 45.4625V51.2676H35.5679V45.4625H36.5919ZM38.3711 46.5731C38.2346 46.4721 38.1109 46.4006 37.9999 46.3585C37.889 46.3081 37.7482 46.2828 37.5775 46.2828C37.3215 46.2828 37.121 46.3459 36.9759 46.4721C36.8309 46.5983 36.7285 46.7708 36.6687 46.9895C36.6175 47.2082 36.5919 47.4564 36.5919 47.7341H36.1311C36.1311 47.2713 36.2122 46.8633 36.3743 46.51C36.545 46.1482 36.7626 45.8622 37.0271 45.6518C37.2917 45.4415 37.5605 45.3363 37.8335 45.3363C38.0469 45.3363 38.2431 45.3658 38.4223 45.4247C38.6101 45.4752 38.7807 45.5803 38.9343 45.7402L38.3711 46.5731ZM40.535 45.4625H41.687L43.351 49.5639L45.015 45.4625H46.167L43.351 51.7093L40.535 45.4625ZM48.7452 49.4756C48.7452 49.6943 48.7964 49.8836 48.8988 50.0435C49.0098 50.2034 49.1591 50.3253 49.3468 50.4095C49.5431 50.4852 49.765 50.523 50.0124 50.523C50.3282 50.523 50.6098 50.4599 50.8572 50.3337C51.1132 50.2075 51.3138 50.0309 51.4588 49.8037C51.6124 49.5681 51.6892 49.2989 51.6892 48.9961L51.894 49.7532C51.894 50.1234 51.7788 50.4305 51.5484 50.6745C51.3266 50.9184 51.0492 51.0994 50.7164 51.2171C50.3922 51.3349 50.0679 51.3938 49.7436 51.3938C49.3852 51.3938 49.0482 51.3223 48.7324 51.1793C48.4252 51.0278 48.1778 50.8133 47.99 50.5357C47.8023 50.258 47.7084 49.9215 47.7084 49.5261C47.7084 48.9624 47.909 48.5123 48.31 48.1758C48.7196 47.8309 49.2871 47.6584 50.0124 47.6584C50.4391 47.6584 50.7932 47.7088 51.0748 47.8098C51.365 47.9023 51.5954 48.0117 51.766 48.1379C51.9367 48.2557 52.0519 48.3524 52.1116 48.4282V49.0213C51.813 48.8194 51.5058 48.6764 51.19 48.5922C50.8743 48.4997 50.5372 48.4534 50.1788 48.4534C49.846 48.4534 49.573 48.4954 49.3596 48.5796C49.1548 48.6638 49.0012 48.7815 48.8988 48.933C48.7964 49.0844 48.7452 49.2652 48.7452 49.4756ZM48.5916 46.8002L48.0924 46.0557C48.3143 45.8958 48.6172 45.736 49.0012 45.5761C49.3938 45.4162 49.8631 45.3363 50.4092 45.3363C50.87 45.3363 51.2711 45.4079 51.6124 45.5509C51.9623 45.6855 52.2311 45.8832 52.4188 46.144C52.6151 46.4048 52.7132 46.7245 52.7132 47.1031V51.2676H51.6892V47.2419C51.6892 47.04 51.6551 46.8759 51.5868 46.7497C51.5186 46.6151 51.4204 46.51 51.2924 46.4343C51.173 46.3585 51.0322 46.3039 50.87 46.2702C50.7079 46.2365 50.5372 46.2197 50.358 46.2197C50.0679 46.2197 49.8034 46.2534 49.5644 46.3207C49.334 46.388 49.1378 46.4679 48.9756 46.5604C48.8135 46.653 48.6855 46.7329 48.5916 46.8002ZM55.8422 49.4882C55.9616 49.6649 56.0982 49.829 56.2518 49.9804C56.4054 50.1318 56.5803 50.2538 56.7766 50.3464C56.9814 50.4305 57.2032 50.4726 57.4422 50.4726C57.7323 50.4726 57.9584 50.4095 58.1206 50.2833C58.2912 50.1486 58.3766 49.9678 58.3766 49.7406C58.3766 49.5387 58.3083 49.3705 58.1718 49.2358C58.0438 49.0928 57.8774 48.975 57.6726 48.8825C57.4678 48.7815 57.2502 48.689 57.0198 48.6048C56.7638 48.5039 56.5034 48.3861 56.239 48.2515C55.983 48.1085 55.7654 47.9276 55.5862 47.7088C55.4155 47.4817 55.3302 47.1999 55.3302 46.8633C55.3302 46.5184 55.4198 46.2323 55.599 46.0052C55.7867 45.778 56.0256 45.6098 56.3158 45.5004C56.6144 45.391 56.9216 45.3363 57.2374 45.3363C57.5531 45.3363 57.8475 45.3868 58.1206 45.4878C58.4022 45.5887 58.6496 45.7234 58.863 45.8916C59.0762 46.0598 59.2426 46.2534 59.3622 46.4721L58.543 46.9895C58.3808 46.7708 58.176 46.5899 57.9286 46.4469C57.6896 46.3039 57.4166 46.2323 57.1094 46.2323C56.896 46.2323 56.7126 46.2786 56.559 46.3712C56.4054 46.4637 56.3286 46.6067 56.3286 46.8002C56.3286 46.9517 56.3883 47.0863 56.5078 47.2041C56.6272 47.3218 56.7808 47.427 56.9686 47.5195C57.1562 47.6121 57.3526 47.7004 57.5574 47.7846C57.8987 47.9192 58.2102 48.0664 58.4918 48.2263C58.7734 48.3777 58.9952 48.5628 59.1574 48.7815C59.328 49.0002 59.4134 49.2821 59.4134 49.627C59.4134 50.1318 59.2256 50.5525 58.8502 50.889C58.4832 51.2256 57.9968 51.3938 57.391 51.3938C56.9984 51.3938 56.6442 51.3265 56.3286 51.1919C56.0128 51.0489 55.744 50.868 55.5222 50.6492C55.3088 50.4305 55.1467 50.2075 55.0358 49.9804L55.8422 49.4882Z"
      fill="white" />
  </g>
  <defs>
    <clipPath id="clip0_16_741">
      <rect width="96" height="56" fill="white" transform="translate(0.5)" />
    </clipPath>
  </defs>
</svg>