<svg width="80" height="80" viewBox="0 0 80 80" fill="none" xmlns="http://www.w3.org/2000/svg">
<rect width="80" height="80" rx="40" fill="#00507B"/>
<path d="M59.6667 24.3333L61 13H39.6667C33.8889 13.2222 22.4667 16.6 23 28.3333C23.6212 42 32.3333 41.8333 39 46.5C43.2436 49.4706 42.5631 52.3919 40.9884 54.0213C40.2332 54.8028 39.1009 55 38.0142 55H20.3333L19 67H39C44.3333 67 49.6666 63.8889 51.6666 62.3333C53.6666 61.2222 57.8 57.1333 58.3333 49.6667C59 40.3333 49 36.3333 41.6667 31.6667C35.8 27.9333 39.2222 25.2222 41.6667 24.3333H59.6667Z" fill="white"/>
</svg>
